<?xml version="1.0" encoding="utf-8"?>
<!-- Generator: Adobe Illustrator 23.0.5, SVG Export Plug-In . SVG Version: 6.00 Build 0)  -->
<svg version="1.1" id="Layer_1" xmlns="http://www.w3.org/2000/svg" xmlns:xlink="http://www.w3.org/1999/xlink" x="0px" y="0px"
	 viewBox="0 0 3100.5 3100.5" style="enable-background:new 0 0 3100.5 3100.5;" xml:space="preserve">
<style type="text/css">
	.st0{display:none;}
	.st1{clip-path:url(#SVGID_2_);fill:#38B6FF;}
	.st2{clip-path:url(#SVGID_2_);fill:#FEBD59;}
	.st3{fill:#38B6FF;}
	.st4{fill:#FEBD59;}
	.st5{clip-path:url(#SVGID_4_);fill:#38B6FF;}
	.st6{display:none;clip-path:url(#SVGID_4_);fill:none;stroke:#38B6FF;stroke-width:20;stroke-miterlimit:10;}
</style>
<rect x="50.3" y="50.3" class="st0" width="3000" height="3000"/>
<g>
	<defs>
		<rect id="SVGID_1_" width="3100.5" height="3100.5"/>
	</defs>
	<clipPath id="SVGID_2_">
		<use xlink:href="#SVGID_1_"  style="overflow:visible;"/>
	</clipPath>
	<path class="st1" d="M1685.3,1471.4c-42.6-18.3-78.5-36-107.9-53c-29.4-17-49.2-29.4-59.4-37l-190.3,320.5
		c11.1,10.2,44.7,30.7,100.9,61.3c15.3,8.4,32,16.6,49.9,24.6c64.8-38.6,115.4-88.9,151.8-151c29-49.5,48-104.3,57.1-164.5
		C1686.7,1472,1686,1471.7,1685.3,1471.4"/>
	<path class="st1" d="M1664.8,1210.3c-19.2-49.8-45.1-91.5-77.9-125.1c-32.8-33.6-69.4-60-109.8-79.2
		c-40.4-19.2-81.9-31.3-124.5-36.4c48.5-11.1,93.5-33.4,134.7-67c12-9.8,23.4-20.4,34-31.8c25.9-27.8,47.8-60.4,65.6-97.8
		c25.1-52.8,37.7-112.8,37.7-180.1c0-102.1-25.3-183.2-76-243.2c-3.5-4.2-7.1-8.3-10.8-12.3c-49.2-53.7-112-92.8-188.4-117.4
		c-82.2-26.4-171.3-39.6-267.5-39.6H885.1c-6,210.3-172.7,380.3-381.6,391.5V1866h647.4c116.6,0,215.1-20.2,295.6-60.6
		c11.1-5.6,21.8-11.4,32.1-17.6c-18-8-34.6-16.3-49.9-24.6c-56.2-30.6-89.8-51.1-100.9-61.3l190.3-320.5c10.2,7.7,30,20,59.4,37
		c29.4,17,65.3,34.7,107.9,53c0.7,0.3,1.4,0.6,2.1,0.9c4.1-27.3,6.2-55.7,6.2-85.2C1693.6,1319.1,1684,1260.1,1664.8,1210.3
		 M885.3,485.6h140.5c68.1,0,121.7,12.1,160.9,36.4c39.1,24.3,58.8,70.9,58.8,139.8c0,38.3-7.9,72.2-23.6,101.6
		c-15.8,29.4-38.7,52.1-69,68.3c-30.2,16.2-67.9,24.3-113,24.3H885.3V485.6z M1268.3,1464.4c-16.2,31.1-41.5,54.9-76,71.5
		c-34.5,16.6-79,24.9-133.4,24.9H885.3v-406.1h167.3c75.8,0,134.7,16,176.8,47.9c42.1,31.9,63.2,81.9,63.2,150.1
		C1292.6,1396.1,1284.5,1433.3,1268.3,1464.4"/>
	<path class="st2" d="M2560,1198.8c-24.7-56.2-58.1-105.8-100.2-148.8c-42.2-43-90.9-80.2-146.2-111.7
		c-55.3-31.5-114.5-58.8-177.5-81.8c-69-26.4-125.8-50.8-170.5-73.4c-44.7-22.6-77.9-46.4-99.6-71.5c-21.7-25.1-32.6-53.4-32.6-84.9
		c0-45.9,20.2-80.6,60.6-104c40.4-23.4,93.5-35.1,159-35.1c48.5,0,95.1,7.7,139.8,23c44.7,15.3,83.4,32.8,116.2,52.4
		c32.8,19.6,56,34.5,69.6,44.7l183.9-307.8c-10.3-8.5-39.2-25.5-86.9-51.1c-47.7-25.5-110.7-49.8-189-72.8
		c-78.3-23-169.8-34.5-274.6-34.5c-99.6,0-193,18.8-280.3,56.2c-78.5,33.7-143.2,80.3-194.1,139.8c3.7,4,7.3,8.1,10.8,12.3
		c50.7,60,76,141.1,76,243.2c0,67.3-12.6,127.3-37.7,180.1c-17.8,37.4-39.7,70-65.6,97.8c36.9,50.9,82.4,94.3,136.5,130.1
		c64.3,42.6,133.4,78.8,207.5,108.6c74.1,28.9,135.8,56.4,185.1,82.3c49.4,26,86.4,53.5,111.1,82.4c24.7,28.9,37,61.7,37,98.3
		c0,49.4-19.6,89.2-58.8,119.4c-39.1,30.2-97.9,45.3-176.2,45.3c-46.8,0-94.3-6.4-142.4-19.1c-47.3-12.6-91.9-27.8-133.9-45.7
		c-0.7-0.3-1.4-0.6-2.1-0.9c-42.6-18.3-78.5-36-107.9-53c-29.4-17-49.2-29.4-59.4-37l-190.3,320.5c11.1,10.2,44.7,30.7,100.9,61.3
		c15.3,8.4,32,16.6,49.9,24.6c47.8,21.4,105,41.8,171.6,60.9c91.5,26.4,195.2,39.6,311,39.6c77.3,0,152.1-9,224.5-26.8
		c4.1-1,8.3-2.1,12.4-3.2c44.8-11.8,86.9-27.2,126.1-46.2c-29.6-35.5-47.4-81.2-47.4-131.1c0-113.2,91.8-205,204.9-205
		c37.8,0,73.2,10.2,103.6,28c7.9-35.4,11.8-73.3,11.8-113.8C2597.1,1318.8,2584.7,1255,2560,1198.8"/>
	<path class="st1" d="M2575.5,1682.2c0,46.6-37.8,84.4-84.4,84.4c-46.6,0-84.4-37.8-84.4-84.4c0-46.6,37.8-84.4,84.4-84.4
		C2537.7,1597.8,2575.5,1635.6,2575.5,1682.2"/>
</g>
<g>
	<path class="st3" d="M431.1,2377.6h-63.8c-9.2,0-15.8-3.3-19.7-9.8c-3.9-6.5-5.9-16.9-5.9-31.1V2089c0-14.5,2-25,6.1-31.4
		c4-6.4,10.6-9.6,19.6-9.6H435c10,0,18.6,1,25.9,2.9c7.3,1.9,13.9,5.7,19.7,11.2c4.9,4.6,9.3,10.5,13.1,17.6
		c3.8,7.1,6.7,15,8.7,23.6c2,8.6,3,17.7,3,27.3c0,33-10.4,57.1-31.3,72.4c27.4,13.8,41.2,40.6,41.2,80.5c0,18.4-3,35-9,49.8
		c-6,14.8-14.1,25.7-24.2,32.7c-6.4,4.2-13.7,7.2-21.9,8.9C451.8,2376.8,442.1,2377.6,431.1,2377.6z M384,2098.2v85.2h38.7
		c10.5,0,18.7-1.6,24.4-4.7c5.7-3.1,10.1-9.1,13.2-18c2.4-6.3,3.6-13.3,3.6-21.1c0-16.6-3.8-27.7-11.3-33.2
		c-7.5-5.5-18.9-8.2-34.3-8.2H384z M428,2231.3h-44v96.2h45.4c28.6,0,42.9-16.3,42.9-48.8c0-16.6-3.7-28.7-11.1-36.2
		C453.8,2235,442.7,2231.3,428,2231.3z"/>
	<path class="st3" d="M689.4,2099.6h-95.3v80.9h87.7c6.5,0,11.3,2.3,14.5,6.9c3.2,4.6,4.8,10.6,4.8,18.1c0,7.5-1.6,13.6-4.7,18.3
		c-3.1,4.7-8,7.1-14.5,7.1h-87.7v93.7h98.6c6.6,0,11.7,2.4,15,7.3c3.4,4.9,5.1,11.4,5.1,19.4c0,7.8-1.7,14.1-5.1,19
		c-3.4,4.9-8.4,7.3-15,7.3H577.7c-9.2,0-15.8-3.2-19.9-9.7c-4-6.4-6.1-16.9-6.1-31.2V2089c0-9.6,0.9-17.4,2.7-23.5
		c1.8-6.1,4.6-10.5,8.5-13.3c3.8-2.8,8.8-4.2,14.7-4.2h111.7c6.7,0,11.8,2.4,15,7.1s4.9,10.9,4.9,18.5c0,7.8-1.6,14-4.9,18.8
		S696.1,2099.6,689.4,2099.6z"/>
	<path class="st3" d="M905,2278.7c0,19.9-3.3,37.8-9.8,53.7c-6.5,15.9-16,28.3-28.6,37.3c-12.5,9-27.4,13.5-44.6,13.5
		c-20.6,0-37.6-6.1-51-18.4c-9.5-8.8-17.2-20.6-23.1-35.4c-5.9-14.8-8.9-29.1-8.9-43c0-8.1,1.8-15,5.3-20.8
		c3.6-5.8,8.1-8.7,13.6-8.7c4.5,0,8.2,2.2,11.3,6.7c3.1,4.5,5.7,11.2,7.9,20c2.7,10.5,5.5,19.3,8.6,26.3c3.1,7,7.4,12.9,13,17.4
		c5.6,4.6,13,6.9,22.1,6.9c12.5,0,22.7-4.6,30.6-13.8c7.8-9.2,11.8-20.7,11.8-34.5c0-10.9-2.1-19.8-6.3-26.6
		c-4.2-6.8-9.7-12-16.4-15.6s-15.6-7.4-26.8-11.5c-15-5.5-27.6-12-37.7-19.4s-18.1-17.5-24.1-30.3c-5.9-12.8-8.9-28.7-8.9-47.8
		c0-18.1,3.1-34.2,9.4-48.3c6.3-14.1,15.3-24.9,27.2-32.5c11.9-7.6,25.8-11.4,41.9-11.4c12.8,0,23.9,2.5,33.3,7.5
		c9.4,5,17.1,11.7,23.3,20c6.2,8.3,10.7,17,13.5,26.2c2.8,9.1,4.3,18.1,4.3,26.8c0,7.9-1.8,15.1-5.3,21.5c-3.6,6.4-8,9.6-13.3,9.6
		c-4.8,0-8.5-1.9-11-5.7c-2.5-3.8-5.2-10.1-8.2-18.8c-3.8-12.4-8.4-22.1-13.7-29.1c-5.3-7-13.9-10.5-25.6-10.5
		c-10.9,0-19.7,3.8-26.4,11.4c-6.7,7.6-10,16.7-10,27.3c0,6.6,1.1,12.3,3.4,17.1c2.3,4.8,5.4,8.9,9.4,12.4c4,3.4,8,6.1,12.1,8.1
		c4.1,2,10.8,4.8,20.2,8.5c11.8,4.3,22.4,9.1,32,14.4c9.5,5.2,17.7,11.6,24.4,19.1c6.7,7.5,11.9,17,15.7,28.4
		C903.1,2248,905,2262.1,905,2278.7z"/>
	<path class="st3" d="M1076.5,2103.2h-46.1v239.4c0,13.8-1.9,24-5.8,30.7c-3.9,6.7-8.9,10-15.1,10c-6.3,0-11.4-3.4-15.3-10.1
		c-3.9-6.7-5.9-16.9-5.9-30.6v-239.4H942c-7.2,0-12.6-2.5-16.1-7.5c-3.5-5-5.3-11.7-5.3-19.9c0-8.5,1.8-15.3,5.5-20.2
		c3.7-4.9,8.9-7.4,15.9-7.4h134.5c7.3,0,12.7,2.5,16.3,7.6c3.6,5.1,5.3,11.8,5.3,20c0,8.2-1.8,14.9-5.4,19.9
		C1089.1,2100.7,1083.7,2103.2,1076.5,2103.2z"/>
	<path class="st3" d="M1354.8,2278.7c0,19.9-3.3,37.8-9.8,53.7c-6.5,15.9-16,28.3-28.6,37.3c-12.5,9-27.4,13.5-44.6,13.5
		c-20.6,0-37.6-6.1-51-18.4c-9.5-8.8-17.2-20.6-23.1-35.4c-5.9-14.8-8.9-29.1-8.9-43c0-8.1,1.8-15,5.3-20.8
		c3.6-5.8,8.1-8.7,13.6-8.7c4.5,0,8.2,2.2,11.3,6.7c3.1,4.5,5.7,11.2,7.9,20c2.7,10.5,5.5,19.3,8.6,26.3c3.1,7,7.4,12.9,13,17.4
		c5.6,4.6,13,6.9,22.1,6.9c12.5,0,22.7-4.6,30.6-13.8c7.8-9.2,11.8-20.7,11.8-34.5c0-10.9-2.1-19.8-6.3-26.6
		c-4.2-6.8-9.7-12-16.4-15.6s-15.6-7.4-26.8-11.5c-15-5.5-27.6-12-37.7-19.4s-18.1-17.5-24.1-30.3c-5.9-12.8-8.9-28.7-8.9-47.8
		c0-18.1,3.1-34.2,9.4-48.3c6.3-14.1,15.3-24.9,27.2-32.5c11.9-7.6,25.8-11.4,41.9-11.4c12.8,0,23.9,2.5,33.3,7.5
		c9.4,5,17.1,11.7,23.3,20c6.2,8.3,10.7,17,13.5,26.2c2.8,9.1,4.3,18.1,4.3,26.8c0,7.9-1.8,15.1-5.3,21.5c-3.6,6.4-8,9.6-13.3,9.6
		c-4.8,0-8.5-1.9-11-5.7c-2.5-3.8-5.2-10.1-8.2-18.8c-3.8-12.4-8.4-22.1-13.7-29.1c-5.3-7-13.9-10.5-25.6-10.5
		c-10.9,0-19.7,3.8-26.4,11.4c-6.7,7.6-10,16.7-10,27.3c0,6.6,1.1,12.3,3.4,17.1c2.3,4.8,5.4,8.9,9.4,12.4c4,3.4,8,6.1,12.1,8.1
		c4.1,2,10.8,4.8,20.2,8.5c11.8,4.3,22.4,9.1,32,14.4c9.5,5.2,17.7,11.6,24.4,19.1c6.7,7.5,11.9,17,15.7,28.4
		C1352.9,2248,1354.8,2262.1,1354.8,2278.7z"/>
	<path class="st3" d="M1482.5,2042.5c21.6,0,40.2,6.9,55.8,20.8c15.5,13.9,27.3,33.6,35.3,59.1c8,25.6,12,55.6,12,90
		c0,25.5-2.2,48.6-6.6,69.5c-4.4,20.8-10.9,38.9-19.7,54.2c-8.7,15.3-19.5,27-32.2,35.1c-12.7,8.1-27.3,12.1-43.7,12.1
		c-16.3,0-31-4.2-43.9-12.5c-12.9-8.3-23.7-20-32.3-35.2c-8.6-15.1-15.2-33.3-19.6-54.6c-4.4-21.3-6.6-44.3-6.6-69
		c0-25.3,2.3-48.6,6.9-69.7c4.6-21.1,11.3-39.1,20-54c8.7-14.8,19.4-26.2,31.9-34.1C1452.3,2046.4,1466.6,2042.5,1482.5,2042.5z
		 M1542.6,2212c0-24.1-2.5-45-7.4-62.7c-4.9-17.7-12-31.1-21.2-40.1c-9.2-9.1-19.7-13.6-31.5-13.6c-8.5,0-16.3,2.5-23.4,7.5
		c-7.2,5-13.3,12.3-18.5,21.9c-5.2,9.6-9.3,21.8-12.2,36.8c-3,14.9-4.5,31.7-4.5,50.2c0,18.7,1.5,35.7,4.5,50.8
		c3,15.1,7.2,27.7,12.7,37.7c5.5,10,11.7,17.4,18.8,22.4c7.1,4.9,14.8,7.4,23.3,7.4c10.8,0,20.8-4.3,29.8-12.8
		c9.1-8.5,16.3-21.7,21.6-39.6C1540,2260,1542.6,2238,1542.6,2212z"/>
	<path class="st3" d="M1663.1,2082.9v239.9h85.7c6.8,0,12.1,2.6,15.7,7.9c3.7,5.2,5.5,11.8,5.5,19.8c0,8.1-1.8,14.7-5.4,19.7
		c-3.6,5-8.9,7.5-15.8,7.5h-102.1c-9.2,0-15.8-3.2-19.9-9.7c-4-6.4-6.1-16.9-6.1-31.2v-253.8c0-13.5,1.9-23.6,5.8-30.3
		s8.9-10.1,15.2-10.1c6.4,0,11.5,3.3,15.5,10C1661.2,2059.1,1663.1,2069.3,1663.1,2082.9z"/>
	<path class="st3" d="M1783.9,2241.4v-158.5c0-13.5,1.9-23.6,5.8-30.3s8.9-10.1,15.2-10.1c6.6,0,11.8,3.4,15.6,10.1
		s5.8,16.9,5.8,30.3V2245c0,18.4,1.3,33.8,3.9,46.2c2.6,12.4,7.2,22,13.9,28.8c6.6,6.8,16,10.2,27.9,10.2c16.5,0,28.2-6.9,35-20.8
		c6.8-13.9,10.3-34.9,10.3-63.1v-163.4c0-13.6,1.9-23.8,5.7-30.5c3.8-6.7,8.9-10,15.2-10c6.4,0,11.5,3.3,15.5,10
		c3.9,6.7,5.9,16.8,5.9,30.5v158.5c0,25.8-1.6,47.3-4.8,64.5c-3.2,17.2-9.2,32.4-18,45.4c-7.6,11.1-16.4,19.2-26.5,24.3
		c-10.1,5.1-21.8,7.6-35.3,7.6c-16,0-29.9-2.7-41.4-8.2c-11.6-5.5-21-13.9-28.3-25.4c-7.3-11.5-12.7-26.1-16.1-44.1
		C1785.6,2287.7,1783.9,2266.3,1783.9,2241.4z"/>
	<path class="st3" d="M2140.8,2103.2h-46.1v239.4c0,13.8-1.9,24-5.8,30.7c-3.9,6.7-8.9,10-15.1,10c-6.3,0-11.4-3.4-15.3-10.1
		c-3.9-6.7-5.9-16.9-5.9-30.6v-239.4h-46.1c-7.2,0-12.6-2.5-16.1-7.5c-3.5-5-5.3-11.7-5.3-19.9c0-8.5,1.8-15.3,5.5-20.2
		c3.7-4.9,8.9-7.4,15.9-7.4h134.5c7.3,0,12.7,2.5,16.3,7.6c3.6,5.1,5.3,11.8,5.3,20c0,8.2-1.8,14.9-5.4,19.9
		C2153.4,2100.7,2148,2103.2,2140.8,2103.2z"/>
	<path class="st3" d="M2189.2,2342.6v-259.6c0-13.5,1.9-23.6,5.8-30.3c3.9-6.7,8.9-10.1,15.1-10.1c6.4,0,11.5,3.3,15.5,10
		c3.9,6.7,5.9,16.8,5.9,30.5v259.6c0,13.6-2,23.8-5.9,30.6c-3.9,6.7-9.1,10.1-15.5,10.1c-6.1,0-11.1-3.4-15-10.2
		C2191.2,2366.2,2189.2,2356.1,2189.2,2342.6z"/>
	<path class="st3" d="M2370.7,2042.5c21.6,0,40.2,6.9,55.8,20.8c15.5,13.9,27.3,33.6,35.3,59.1c8,25.6,12,55.6,12,90
		c0,25.5-2.2,48.6-6.6,69.5c-4.4,20.8-10.9,38.9-19.7,54.2c-8.7,15.3-19.5,27-32.2,35.1c-12.7,8.1-27.3,12.1-43.7,12.1
		c-16.3,0-31-4.2-43.9-12.5c-12.9-8.3-23.7-20-32.3-35.2c-8.6-15.1-15.2-33.3-19.6-54.6c-4.4-21.3-6.6-44.3-6.6-69
		c0-25.3,2.3-48.6,6.9-69.7c4.6-21.1,11.3-39.1,20-54c8.7-14.8,19.4-26.2,31.9-34.1C2340.5,2046.4,2354.7,2042.5,2370.7,2042.5z
		 M2430.8,2212c0-24.1-2.5-45-7.4-62.7c-4.9-17.7-12-31.1-21.2-40.1c-9.2-9.1-19.7-13.6-31.5-13.6c-8.5,0-16.3,2.5-23.4,7.5
		c-7.2,5-13.3,12.3-18.5,21.9c-5.2,9.6-9.3,21.8-12.2,36.8c-3,14.9-4.5,31.7-4.5,50.2c0,18.7,1.5,35.7,4.5,50.8
		c3,15.1,7.2,27.7,12.7,37.7c5.5,10,11.7,17.4,18.8,22.4c7.1,4.9,14.8,7.4,23.3,7.4c10.8,0,20.8-4.3,29.8-12.8
		c9.1-8.5,16.3-21.7,21.6-39.6C2428.1,2260,2430.8,2238,2430.8,2212z"/>
	<path class="st3" d="M2564.9,2082.5l81.3,194.2v-196c0-12.7,1.7-22.3,5.2-28.7c3.5-6.4,8.1-9.6,14-9.6c6.1,0,10.9,3.2,14.4,9.6
		c3.5,6.4,5.3,15.9,5.3,28.7v259.2c0,28.9-7.6,43.4-22.8,43.4c-3.8,0-7.2-0.9-10.3-2.6c-3-1.7-5.9-4.5-8.5-8.2
		c-2.7-3.7-5.1-8.1-7.4-13.2c-2.3-5-4.6-10.2-6.8-15.4l-79.3-192V2345c0,12.6-1.9,22.1-5.6,28.5c-3.7,6.4-8.5,9.7-14.2,9.7
		c-6,0-10.8-3.3-14.4-9.8c-3.6-6.5-5.4-16-5.4-28.4v-254.2c0-10.8,0.8-19.3,2.3-25.4c1.8-6.7,4.8-12.3,9-16.5
		c4.2-4.3,8.7-6.4,13.5-6.4c3.8,0,7.1,1,9.8,2.9c2.7,1.9,5.1,4.6,7.1,7.9c2,3.3,4.1,7.6,6.3,12.8
		C2560.5,2071.3,2562.7,2076.8,2564.9,2082.5z"/>
</g>
<g>
	<path class="st4" d="M1466.7,2860.4h-52.8c-7.6,0-13.1-3.3-16.3-9.8c-3.3-6.5-4.9-16.9-4.9-31.1v-247.7c0-14.5,1.7-25,5-31.4
		c3.3-6.4,8.7-9.6,16.2-9.6h56c8.3,0,15.4,1,21.5,2.9c6.1,1.9,11.5,5.7,16.3,11.2c4.1,4.6,7.7,10.5,10.8,17.6
		c3.1,7.1,5.5,15,7.2,23.6c1.7,8.6,2.5,17.7,2.5,27.3c0,33-8.6,57.1-25.9,72.4c22.7,13.8,34.1,40.6,34.1,80.5
		c0,18.4-2.5,35-7.4,49.8c-5,14.8-11.6,25.7-20,32.7c-5.3,4.2-11.3,7.2-18.2,8.9C1483.8,2859.5,1475.8,2860.4,1466.7,2860.4z
		 M1427.7,2581v85.2h32.1c8.7,0,15.5-1.6,20.2-4.7c4.8-3.1,8.4-9.1,10.9-18c2-6.3,2.9-13.3,2.9-21.1c0-16.6-3.1-27.7-9.3-33.2
		c-6.2-5.5-15.7-8.2-28.4-8.2H1427.7z M1464.1,2714h-36.4v96.2h37.6c23.7,0,35.5-16.3,35.5-48.8c0-16.6-3.1-28.7-9.2-36.2
		C1485.5,2717.8,1476.3,2714,1464.1,2714z"/>
	<path class="st4" d="M1588.3,2530.8h45.6c11.9,0,22,2.1,30.5,6.3c8.5,4.2,16.2,12.1,23.1,23.6c18,29.4,27,74,27,134
		c0,19.8-0.9,37.8-2.7,54.2c-1.8,16.3-4.6,31.1-8.4,44.2c-3.8,13.1-8.6,24.8-14.5,35.2c-4.6,7.9-9.7,14.3-15.2,19.1
		c-5.5,4.8-11.4,8.2-17.7,10.1c-6.3,1.9-13.5,2.9-21.4,2.9H1589c-6.4,0-11.2-1.8-14.4-5.5c-3.2-3.7-5.3-8.8-6.3-15.5
		c-1-6.7-1.5-15.3-1.5-26v-241.7c0-14.4,1.7-24.8,5.1-31.2C1575.3,2534.1,1580.7,2530.8,1588.3,2530.8z M1601.8,2583.7v223.7h26.5
		c5.8,0,10.4-0.3,13.7-0.9c3.3-0.6,6.7-2.1,10.3-4.5c3.5-2.4,6.6-5.8,9.2-10.1c11.7-18.9,17.6-51.4,17.6-97.6
		c0-32.5-2.6-56.9-7.7-73.1c-5.1-16.2-11.5-26.5-19-30.9c-7.5-4.4-16.7-6.6-27.4-6.6H1601.8z"/>
</g>
<g>
	<defs>
		<rect id="SVGID_3_" width="3100.5" height="3100.5"/>
	</defs>
	<clipPath id="SVGID_4_">
		<use xlink:href="#SVGID_3_"  style="overflow:visible;"/>
	</clipPath>
	<path class="st5" d="M502.6,2693.8c0,14.6,11.8,26.5,26.5,26.5h723.8c14.6,0,26.5-11.8,26.5-26.5s-11.8-26.5-26.5-26.5H529.1
		C514.5,2667.3,502.6,2679.1,502.6,2693.8C502.6,2693.8,502.6,2679.1,502.6,2693.8"/>
	<path class="st5" d="M1809.7,2690.4c0,14.6,11.8,26.5,26.5,26.5H2560c14.6,0,26.5-11.8,26.5-26.5c0-14.6-11.8-26.5-26.5-26.5
		h-723.8C1821.6,2663.9,1809.7,2675.8,1809.7,2690.4C1809.7,2690.4,1809.7,2675.8,1809.7,2690.4"/>
	<path class="st6" d="M2866.6,3006.9H233.9c-77.4,0-140.2-62.8-140.2-140.2V233.9c0-77.4,62.8-140.2,140.2-140.2h2632.8
		c77.4,0,140.2,62.8,140.2,140.2v2632.8C3006.9,2944.1,2944.1,3006.9,2866.6,3006.9z"/>
</g>
</svg>
